MerriweatherSansLight-Italic.ufo
<glyph name="asterisk" format="1">
  <advance width="1366"/>
  <unicode hex="002A"/>
  <outline>
    <contour>
      <point x="299" y="831" type="line"/>
      <point x="568" y="1001" type="line"/>
      <point x="696" y="1096" type="line"/>
      <point x="660" y="950" type="line"/>
      <point x="608" y="648" type="line"/>
      <point x="759" y="647" type="line"/>
      <point x="766" y="950" type="line"/>
      <point x="757" y="1096" type="line"/>
      <point x="862" y="999" type="line"/>
      <point x="1089" y="827" type="line"/>
      <point x="1177" y="953" type="line"/>
      <point x="923" y="1088" type="line"/>
      <point x="794" y="1146" type="line"/>
      <point x="939" y="1204" type="line"/>
      <point x="1223" y="1339" type="line"/>
      <point x="1164" y="1467" type="line"/>
      <point x="897" y="1295" type="line"/>
      <point x="768" y="1200" type="line"/>
      <point x="805" y="1350" type="line"/>
      <point x="856" y="1653" type="line"/>
      <point x="708" y="1653" type="line"/>
      <point x="701" y="1350" type="line"/>
      <point x="707" y="1200" type="line"/>
      <point x="598" y="1295" type="line"/>
      <point x="365" y="1471" type="line"/>
      <point x="278" y="1344" type="line"/>
      <point x="538" y="1205" type="line"/>
      <point x="672" y="1147" type="line"/>
      <point x="526" y="1090" type="line"/>
      <point x="240" y="960" type="line"/>
    </contour>
  </outline>
</glyph>
<glyph name="hyphen" format="1">
  <advance width="1266"/>
  <unicode hex="002D"/>
  <outline>
    <contour>
      <point x="220" y="712" type="line"/>
      <point x="1057" y="712" type="line"/>
      <point x="1071" y="833" type="line"/>
      <point x="234" y="833" type="line"/>
    </contour>
  </outline>
</glyph>
<glyph name="four" format="1">
  <advance width="1240"/>
  <unicode hex="0034"/>
  <outline>
    <contour>
      <point x="23" y="72" type="curve"/>
      <point x="50" y="0" type="line"/>
      <point x="697" y="0" type="line"/>
      <point x="648" y="-375" type="line"/>
      <point x="793" y="-375" type="line"/>
      <point x="840" y="0" type="line"/>
      <point x="1103" y="0" type="line"/>
      <point x="1119" y="133" type="line"/>
      <point x="856" y="122" type="line"/>
      <point x="923" y="649" type="line"/>
      <point x="776" y="621" type="line"/>
      <point x="712" y="114" type="line"/>
      <point x="188" y="101" type="line"/>
      <point x="296" y="259" type="line"/>
      <point x="873" y="1188" type="line"/>
      <point x="767" y="1256" type="line"/>
      <point x="729" y="1256" type="line"/>
      <point x="477" y="804"/>
      <point x="246" y="421"/>
    </contour>
  </outline>
</glyph>
<glyph name="seven" format="1">
  <advance width="1063"/>
  <unicode hex="0037"/>
  <outline>
    <contour>
      <point x="278" y="-264" type="line"/>
      <point x="415" y="-315" type="line"/>
      <point x="1033" y="1109" type="line"/>
      <point x="1007" y="1144" type="line"/>
      <point x="124" y="1144" type="line"/>
      <point x="98" y="1021" type="line"/>
      <point x="862" y="1024" type="line"/>
    </contour>
  </outline>
</glyph>
<glyph name="eight" format="1">
  <advance width="1249"/>
  <unicode hex="0038"/>
  <outline>
    <contour>
      <point x="120" y="348" type="curve" smooth="yes"/>
      <point x="120" y="101"/>
      <point x="342" y="-17"/>
      <point x="546" y="-17" type="curve" smooth="yes"/>
      <point x="827" y="-17"/>
      <point x="1062" y="139"/>
      <point x="1062" y="401" type="curve" smooth="yes"/>
      <point x="1062" y="572"/>
      <point x="908" y="705"/>
      <point x="762" y="805" type="curve"/>
      <point x="963" y="877"/>
      <point x="1132" y="1045"/>
      <point x="1132" y="1243" type="curve" smooth="yes"/>
      <point x="1132" y="1445"/>
      <point x="969" y="1569"/>
      <point x="758" y="1569" type="curve" smooth="yes"/>
      <point x="499" y="1569"/>
      <point x="296" y="1429"/>
      <point x="296" y="1171" type="curve" smooth="yes"/>
      <point x="296" y="1011"/>
      <point x="411" y="902"/>
      <point x="517" y="820" type="curve"/>
      <point x="327" y="738"/>
      <point x="120" y="570"/>
    </contour>
    <contour>
      <point x="683" y="864" type="curve"/>
      <point x="559" y="952"/>
      <point x="449" y="1053"/>
      <point x="449" y="1198" type="curve" smooth="yes"/>
      <point x="449" y="1359"/>
      <point x="580" y="1470"/>
      <point x="741" y="1470" type="curve" smooth="yes"/>
      <point x="866" y="1470"/>
      <point x="982" y="1392"/>
      <point x="982" y="1232" type="curve" smooth="yes"/>
      <point x="982" y="1053"/>
      <point x="819" y="925"/>
    </contour>
    <contour>
      <point x="281" y="367" type="curve" smooth="yes"/>
      <point x="284" y="553"/>
      <point x="456" y="696"/>
      <point x="597" y="763" type="curve"/>
      <point x="769" y="648"/>
      <point x="899" y="524"/>
      <point x="899" y="373" type="curve" smooth="yes"/>
      <point x="899" y="200"/>
      <point x="745" y="87"/>
      <point x="573" y="87" type="curve" smooth="yes"/>
      <point x="389" y="87"/>
      <point x="281" y="208"/>
    </contour>
  </outline>
</glyph>
<glyph name="nine" format="1">
  <advance width="1244"/>
  <unicode hex="0039"/>
  <outline>
    <contour>
      <point x="205" y="-341" type="curve"/>
      <point x="239" y="-430" type="line"/>
      <point x="731" y="-293"/>
      <point x="1088" y="151"/>
      <point x="1088" y="657" type="curve"/>
      <point x="1088" y="930"/>
      <point x="955" y="1161"/>
      <point x="683" y="1161" type="curve" smooth="yes"/>
      <point x="331" y="1161"/>
      <point x="139" y="832"/>
      <point x="139" y="540" type="curve" smooth="yes"/>
      <point x="139" y="343"/>
      <point x="244" y="151"/>
      <point x="521" y="151" type="curve" smooth="yes"/>
      <point x="699" y="151"/>
      <point x="808" y="238"/>
      <point x="869" y="301" type="curve"/>
      <point x="769" y="15"/>
      <point x="525" y="-232"/>
    </contour>
    <contour>
      <point x="290" y="561" type="curve" smooth="yes"/>
      <point x="290" y="763"/>
      <point x="397" y="1055"/>
      <point x="649" y="1055" type="curve" smooth="yes"/>
      <point x="842" y="1055"/>
      <point x="938" y="896"/>
      <point x="938" y="671" type="curve"/>
      <point x="938" y="584"/>
      <point x="926" y="519"/>
      <point x="908" y="443" type="curve"/>
      <point x="863" y="392"/>
      <point x="754" y="267"/>
      <point x="556" y="267" type="curve" smooth="yes"/>
      <point x="397" y="267"/>
      <point x="290" y="368"/>
    </contour>
  </outline>
</glyph>
<glyph name="at" format="1">
  <advance width="1968"/>
  <unicode hex="0040"/>
  <outline>
    <contour>
      <point x="121" y="373" type="curve" smooth="yes"/>
      <point x="121" y="-144"/>
      <point x="449" y="-440"/>
      <point x="898" y="-440" type="curve" smooth="yes"/>
      <point x="1072" y="-440"/>
      <point x="1234" y="-392"/>
      <point x="1324" y="-324" type="curve"/>
      <point x="1298" y="-248" type="line"/>
      <point x="1234" y="-283"/>
      <point x="1053" y="-333"/>
      <point x="909" y="-333" type="curve" smooth="yes"/>
      <point x="545" y="-333"/>
      <point x="238" y="-117"/>
      <point x="238" y="391" type="curve" smooth="yes"/>
      <point x="238" y="945"/>
      <point x="607" y="1444"/>
      <point x="1161" y="1444" type="curve" smooth="yes"/>
      <point x="1493" y="1444"/>
      <point x="1751" y="1294"/>
      <point x="1751" y="865" type="curve" smooth="yes"/>
      <point x="1751" y="493"/>
      <point x="1533" y="141"/>
      <point x="1353" y="141" type="curve" smooth="yes"/>
      <point x="1322" y="141"/>
      <point x="1314" y="175"/>
      <point x="1314" y="205" type="curve" smooth="yes"/>
      <point x="1314" y="246"/>
      <point x="1320" y="343"/>
      <point x="1333" y="446" type="curve" smooth="yes"/>
      <point x="1359" y="649"/>
      <point x="1406" y="908"/>
      <point x="1447" y="1062" type="curve"/>
      <point x="1319" y="1038" type="line"/>
      <point x="1263" y="1074"/>
      <point x="1144" y="1092"/>
      <point x="1086" y="1092" type="curve" smooth="yes"/>
      <point x="716" y="1092"/>
      <point x="549" y="725"/>
      <point x="543" y="434" type="curve" smooth="yes"/>
      <point x="537" y="137"/>
      <point x="689" y="5"/>
      <point x="824" y="5" type="curve" smooth="yes"/>
      <point x="982" y="5"/>
      <point x="1120" y="242"/>
      <point x="1211" y="461" type="curve"/>
      <point x="1194" y="372"/>
      <point x="1179" y="268"/>
      <point x="1179" y="213" type="curve" smooth="yes"/>
      <point x="1179" y="108"/>
      <point x="1184" y="8"/>
      <point x="1278" y="8" type="curve" smooth="yes"/>
      <point x="1538" y="8"/>
      <point x="1869" y="340"/>
      <point x="1869" y="889" type="curve" smooth="yes"/>
      <point x="1869" y="1289"/>
      <point x="1608" y="1545"/>
      <point x="1189" y="1545" type="curve" smooth="yes"/>
      <point x="599" y="1545"/>
      <point x="121" y="1097"/>
    </contour>
    <contour>
      <point x="681" y="444" type="curve" smooth="yes"/>
      <point x="681" y="691"/>
      <point x="820" y="994"/>
      <point x="1080" y="995" type="curve" smooth="yes"/>
      <point x="1139" y="995"/>
      <point x="1244" y="971"/>
      <point x="1282" y="926" type="curve"/>
      <point x="1214" y="622"/>
      <point x="995" y="121"/>
      <point x="847" y="122" type="curve" smooth="yes"/>
      <point x="743" y="123"/>
      <point x="681" y="243"/>
    </contour>
  </outline>
</glyph>
<glyph name="C" format="1">
  <advance width="1141"/>
  <unicode hex="0043"/>
  <outline>
    <contour>
      <point x="110" y="627" type="curve" smooth="yes"/>
      <point x="115" y="317"/>
      <point x="241" y="-15"/>
      <point x="622" y="-15" type="curve" smooth="yes"/>
      <point x="857" y="-15"/>
      <point x="982" y="48"/>
      <point x="1038" y="83" type="curve"/>
      <point x="1015" y="211" type="line"/>
      <point x="960" y="172"/>
      <point x="814" y="105"/>
      <point x="649" y="105" type="curve" smooth="yes"/>
      <point x="379" y="105"/>
      <point x="269" y="354"/>
      <point x="264" y="642" type="curve" smooth="yes"/>
      <point x="257" y="991"/>
      <point x="426" y="1420"/>
      <point x="818" y="1420" type="curve" smooth="yes"/>
      <point x="979" y="1420"/>
      <point x="1052" y="1376"/>
      <point x="1094" y="1358" type="curve"/>
      <point x="1147" y="1484" type="line"/>
      <point x="1144" y="1485"/>
      <point x="1100" y="1499"/>
      <point x="1096" y="1500" type="curve"/>
      <point x="1029" y="1522"/>
      <point x="953" y="1546"/>
      <point x="824" y="1546" type="curve" smooth="yes"/>
      <point x="416" y="1546"/>
      <point x="100" y="1175"/>
    </contour>
    <contour>
      <point x="627" y="-168" type="move" name="btm"/>
    </contour>
    <contour>
      <point x="809" y="1700" type="move" name="top"/>
    </contour>
  </outline>
</glyph>
<glyph name="Q" format="1">
  <advance width="1378"/>
  <unicode hex="0051"/>
  <outline>
    <contour>
      <point x="579" y="-12" type="curve"/>
      <point x="548" y="-247"/>
      <point x="723" y="-359"/>
      <point x="912" y="-359" type="curve" smooth="yes"/>
      <point x="1024" y="-359"/>
      <point x="1163" y="-338"/>
      <point x="1217" y="-302" type="curve"/>
      <point x="1217" y="-185" type="line"/>
      <point x="1156" y="-209"/>
      <point x="1060" y="-220"/>
      <point x="999" y="-220" type="curve" smooth="yes"/>
      <point x="847" y="-220"/>
      <point x="679" y="-189"/>
      <point x="687" y="3" type="curve"/>
      <point x="635" y="47" type="line"/>
      <point x="599" y="3"/>
      <point x="580" y="-6"/>
    </contour>
    <component base="O"/>
    <contour>
      <point x="663" y="-168" type="move" name="btm"/>
    </contour>
    <contour>
      <point x="883" y="1700" type="move" name="top"/>
    </contour>
  </outline>
</glyph>
<glyph name="R" format="1">
  <advance width="1256"/>
  <unicode hex="0052"/>
  <outline>
    <contour>
      <point x="120" y="0" type="line"/>
      <point x="271" y="0" type="line"/>
      <point x="353" y="658" type="line"/>
      <point x="426" y="657"/>
      <point x="596" y="656"/>
      <point x="615" y="656" type="curve"/>
      <point x="706" y="654"/>
      <point x="793" y="446"/>
      <point x="859" y="258" type="curve"/>
      <point x="920" y="99"/>
      <point x="951" y="34"/>
      <point x="972" y="1" type="curve"/>
      <point x="1144" y="-1" type="line"/>
      <point x="1112" y="42"/>
      <point x="1078" y="125"/>
      <point x="986" y="337" type="curve"/>
      <point x="953" y="425"/>
      <point x="854" y="646"/>
      <point x="785" y="689" type="curve"/>
      <point x="780" y="673" type="line"/>
      <point x="1022" y="729"/>
      <point x="1174" y="935"/>
      <point x="1169" y="1194" type="curve" smooth="yes"/>
      <point x="1165" y="1424"/>
      <point x="999" y="1546"/>
      <point x="698" y="1546" type="curve" smooth="yes"/>
      <point x="583" y="1546"/>
      <point x="500" y="1530"/>
      <point x="388" y="1530" type="curve" smooth="yes"/>
      <point x="312" y="1530" type="line"/>
    </contour>
    <contour>
      <point x="368" y="779" type="curve"/>
      <point x="448" y="1414" type="line"/>
      <point x="499" y="1420"/>
      <point x="626" y="1430"/>
      <point x="677" y="1430" type="curve" smooth="yes"/>
      <point x="891" y="1430"/>
      <point x="1003" y="1349"/>
      <point x="1006" y="1187" type="curve" smooth="yes"/>
      <point x="1011" y="948"/>
      <point x="870" y="777"/>
      <point x="636" y="777" type="curve" smooth="yes"/>
      <point x="590" y="777"/>
      <point x="424" y="776"/>
    </contour>
    <contour>
      <point x="626" y="-170" type="move" name="btm"/>
    </contour>
    <contour>
      <point x="756" y="1700" type="move" name="top"/>
    </contour>
  </outline>
</glyph>
<glyph name="f" format="1">
  <advance width="695"/>
  <unicode hex="0066"/>
  <outline>
    <contour>
      <point x="167" y="0" type="line"/>
      <point x="315" y="0" type="line"/>
      <point x="453" y="1021" type="line"/>
      <point x="703" y="1021" type="line"/>
      <point x="712" y="1140" type="line"/>
      <point x="469" y="1140" type="line"/>
      <point x="490" y="1302" type="line" smooth="yes"/>
      <point x="508" y="1445"/>
      <point x="594" y="1561"/>
      <point x="719" y="1562" type="curve" smooth="yes"/>
      <point x="788" y="1563"/>
      <point x="826" y="1548"/>
      <point x="851" y="1531" type="curve"/>
      <point x="889" y="1652" type="line"/>
      <point x="840" y="1674"/>
      <point x="789" y="1678"/>
      <point x="738" y="1678" type="curve" smooth="yes"/>
      <point x="510" y="1678"/>
      <point x="370" y="1509"/>
      <point x="338" y="1264" type="curve" smooth="yes"/>
      <point x="320" y="1140" type="line"/>
      <point x="174" y="1139" type="line"/>
      <point x="152" y="1021" type="line"/>
      <point x="304" y="1021" type="line"/>
    </contour>
    <contour>
      <point x="433" y="1556" type="move" name="top"/>
    </contour>
  </outline>
</glyph>
<glyph name="p" format="1">
  <advance width="1162"/>
  <unicode hex="0070"/>
  <outline>
    <contour>
      <point x="26" y="-515" type="line"/>
      <point x="174" y="-515" type="line"/>
      <point x="349" y="809" type="line"/>
      <point x="356" y="921" type="line"/>
      <point x="379" y="1140" type="line"/>
      <point x="245" y="1140" type="line"/>
    </contour>
    <contour>
      <point x="416" y="-16" type="curve" smooth="yes"/>
      <point x="855" y="-16"/>
      <point x="1057" y="406"/>
      <point x="1057" y="723" type="curve" smooth="yes"/>
      <point x="1057" y="981"/>
      <point x="956" y="1156"/>
      <point x="739" y="1156" type="curve" smooth="yes"/>
      <point x="511" y="1156"/>
      <point x="337" y="942"/>
      <point x="306" y="836" type="curve"/>
      <point x="322" y="736" type="line"/>
      <point x="364" y="833"/>
      <point x="525" y="1040"/>
      <point x="713" y="1040" type="curve" smooth="yes"/>
      <point x="827" y="1040"/>
      <point x="902" y="939"/>
      <point x="902" y="706" type="curve" smooth="yes"/>
      <point x="902" y="434"/>
      <point x="742" y="94"/>
      <point x="440" y="94" type="curve" smooth="yes"/>
      <point x="350" y="94"/>
      <point x="250" y="123"/>
      <point x="203" y="162" type="curve"/>
      <point x="146" y="41" type="line"/>
      <point x="203" y="15"/>
      <point x="325" y="-16"/>
    </contour>
    <contour>
      <point x="714" y="1258" type="move" name="top"/>
    </contour>
  </outline>
</glyph>
<glyph name="q" format="1">
  <advance width="1146"/>
  <unicode hex="0071"/>
  <outline>
    <contour>
      <point x="674" y="-507" type="line"/>
      <point x="822" y="-507" type="line"/>
      <point x="1043" y="1160" type="line"/>
      <point x="888" y="1112" type="line"/>
      <point x="811" y="542" type="line"/>
      <point x="806" y="499"/>
      <point x="791" y="307"/>
      <point x="780" y="225" type="curve"/>
      <point x="780" y="225"/>
      <point x="752" y="73"/>
      <point x="752" y="73" type="curve"/>
    </contour>
    <contour>
      <point x="397" y="-16" type="curve" smooth="yes"/>
      <point x="625" y="-16"/>
      <point x="802" y="204"/>
      <point x="832" y="312" type="curve"/>
      <point x="815" y="407" type="line"/>
      <point x="771" y="312"/>
      <point x="611" y="100"/>
      <point x="423" y="100" type="curve" smooth="yes"/>
      <point x="309" y="100"/>
      <point x="233" y="200"/>
      <point x="233" y="434" type="curve" smooth="yes"/>
      <point x="233" y="706"/>
      <point x="394" y="1046"/>
      <point x="696" y="1046" type="curve" smooth="yes"/>
      <point x="786" y="1046"/>
      <point x="885" y="1017"/>
      <point x="933" y="977" type="curve"/>
      <point x="990" y="1098" type="line"/>
      <point x="933" y="1125"/>
      <point x="811" y="1156"/>
      <point x="719" y="1156" type="curve" smooth="yes"/>
      <point x="281" y="1156"/>
      <point x="79" y="730"/>
      <point x="79" y="416" type="curve" smooth="yes"/>
      <point x="79" y="159"/>
      <point x="180" y="-16"/>
    </contour>
    <contour>
      <point x="471" y="1621" type="move" name="cr"/>
    </contour>
    <contour>
      <point x="681" y="1258" type="move" name="top"/>
    </contour>
  </outline>
</glyph>
<glyph name="r" format="1">
  <advance width="778"/>
  <unicode hex="0072"/>
  <outline>
    <contour>
      <point x="324" y="658" type="line"/>
      <point x="397" y="861"/>
      <point x="567" y="998"/>
      <point x="681" y="998" type="curve" smooth="yes"/>
      <point x="728" y="998"/>
      <point x="754" y="994"/>
      <point x="773" y="985" type="curve"/>
      <point x="806" y="1143" type="line"/>
      <point x="794" y="1154"/>
      <point x="762" y="1156"/>
      <point x="742" y="1156" type="curve" smooth="yes"/>
      <point x="547" y="1156"/>
      <point x="391" y="971"/>
      <point x="348" y="863" type="curve"/>
      <point x="295" y="716" type="line"/>
    </contour>
    <contour>
      <point x="93" y="0" type="line"/>
      <point x="241" y="0" type="line"/>
      <point x="358" y="871" type="line"/>
      <point x="386" y="1140" type="line"/>
      <point x="246" y="1140" type="line"/>
    </contour>
    <contour>
      <point x="152" y="-167" type="move" name="btm"/>
    </contour>
    <contour>
      <point x="353" y="1258" type="move" name="top"/>
    </contour>
  </outline>
</glyph>
<glyph name="s" format="1">
  <advance width="872"/>
  <unicode hex="0073"/>
  <outline>
    <contour>
      <point x="45" y="48" type="line"/>
      <point x="81" y="16"/>
      <point x="210" y="-16"/>
      <point x="339" y="-16" type="curve" smooth="yes"/>
      <point x="562" y="-16"/>
      <point x="729" y="87"/>
      <point x="729" y="289" type="curve" smooth="yes"/>
      <point x="729" y="458"/>
      <point x="585" y="556"/>
      <point x="490" y="628" type="curve" smooth="yes"/>
      <point x="407" y="692"/>
      <point x="316" y="752"/>
      <point x="316" y="873" type="curve" smooth="yes"/>
      <point x="316" y="977"/>
      <point x="406" y="1044"/>
      <point x="550" y="1044" type="curve" smooth="yes"/>
      <point x="681" y="1044"/>
      <point x="763" y="988"/>
      <point x="775" y="972" type="curve"/>
      <point x="804" y="1112" type="line"/>
      <point x="771" y="1129"/>
      <point x="672" y="1156"/>
      <point x="550" y="1156" type="curve" smooth="yes"/>
      <point x="347" y="1156"/>
      <point x="173" y="1052"/>
      <point x="173" y="854" type="curve" smooth="yes"/>
      <point x="173" y="689"/>
      <point x="283" y="603"/>
      <point x="389" y="520" type="curve" smooth="yes"/>
      <point x="483" y="446"/>
      <point x="581" y="384"/>
      <point x="581" y="272" type="curve" smooth="yes"/>
      <point x="581" y="151"/>
      <point x="478" y="97"/>
      <point x="347" y="97" type="curve" smooth="yes"/>
      <point x="216" y="97"/>
      <point x="115" y="148"/>
      <point x="73" y="178" type="curve"/>
    </contour>
    <contour>
      <point x="365" y="-167" type="move" name="btm"/>
    </contour>
    <contour>
      <point x="547" y="1258" type="move" name="top"/>
    </contour>
  </outline>
</glyph>
<glyph name="t" format="1">
  <advance width="739"/>
  <unicode hex="0074"/>
  <outline>
    <contour>
      <point x="166" y="156" type="curve" smooth="yes"/>
      <point x="166" y="42"/>
      <point x="230" y="-16"/>
      <point x="341" y="-16" type="curve" smooth="yes"/>
      <point x="454" y="-16"/>
      <point x="598" y="72"/>
      <point x="638" y="120" type="curve"/>
      <point x="618" y="204" type="line"/>
      <point x="579" y="173"/>
      <point x="463" y="103"/>
      <point x="399" y="103" type="curve" smooth="yes"/>
      <point x="334" y="103"/>
      <point x="320" y="160"/>
      <point x="320" y="219" type="curve" smooth="yes"/>
      <point x="320" y="251"/>
      <point x="327" y="295"/>
      <point x="336" y="362" type="curve" smooth="yes"/>
      <point x="423" y="1021" type="line"/>
      <point x="713" y="1021" type="line"/>
      <point x="731" y="1140" type="line"/>
      <point x="440" y="1140" type="line"/>
      <point x="476" y="1419" type="line"/>
      <point x="350" y="1419" type="line"/>
      <point x="294" y="1140" type="line"/>
      <point x="167" y="1139" type="line"/>
      <point x="136" y="1021" type="line"/>
      <point x="271" y="1021" type="line"/>
      <point x="178" y="290" type="line" smooth="yes"/>
      <point x="168" y="209"/>
      <point x="166" y="172"/>
    </contour>
    <contour>
      <point x="295" y="-167" type="move" name="btm"/>
    </contour>
    <contour>
      <point x="418" y="1363" type="move" name="top"/>
    </contour>
    <contour>
      <point x="387" y="471" type="move" name="tbarbar"/>
    </contour>
  </outline>
</glyph>
<glyph name="v" format="1">
  <advance width="1007"/>
  <unicode hex="0076"/>
  <outline>
    <contour>
      <point x="286" y="-14" type="line"/>
      <point x="421" y="-4" type="line"/>
      <point x="602" y="206" type="line" smooth="yes"/>
      <point x="781" y="419"/>
      <point x="959" y="715"/>
      <point x="979" y="1004" type="curve" smooth="yes"/>
      <point x="982" y="1059"/>
      <point x="981" y="1103"/>
      <point x="977" y="1140" type="curve"/>
      <point x="835" y="1140" type="line"/>
      <point x="840" y="1101"/>
      <point x="822" y="963"/>
      <point x="810" y="892" type="curve" smooth="yes"/>
      <point x="769" y="658"/>
      <point x="678" y="509"/>
      <point x="550" y="325" type="curve" smooth="yes"/>
      <point x="383" y="116" type="line"/>
      <point x="361" y="354" type="line"/>
      <point x="279" y="1140" type="line"/>
      <point x="114" y="1140" type="line"/>
      <point x="228" y="354" type="line"/>
    </contour>
    <contour>
      <point x="592" y="1258" type="move" name="top"/>
    </contour>
  </outline>
</glyph>
<glyph name="asciitilde" format="1">
  <advance width="1137"/>
  <unicode hex="007E"/>
  <outline>
    <contour>
      <point x="195" y="787" type="line"/>
      <point x="248" y="868"/>
      <point x="324" y="915"/>
      <point x="413" y="915" type="curve" smooth="yes"/>
      <point x="534" y="915"/>
      <point x="604" y="741"/>
      <point x="757" y="741" type="curve" smooth="yes"/>
      <point x="908" y="741"/>
      <point x="1024" y="848"/>
      <point x="1052" y="941" type="curve"/>
      <point x="996" y="998" type="line"/>
      <point x="955" y="934"/>
      <point x="887" y="868"/>
      <point x="786" y="868" type="curve" smooth="yes"/>
      <point x="664" y="868"/>
      <point x="594" y="1041"/>
      <point x="442" y="1041" type="curve" smooth="yes"/>
      <point x="288" y="1041"/>
      <point x="167" y="923"/>
      <point x="140" y="844" type="curve"/>
    </contour>
  </outline>
</glyph>
<glyph name="currency" format="1">
  <advance width="1514"/>
  <unicode hex="00A4"/>
  <outline>
    <contour>
      <point x="326" y="690" type="curve" smooth="yes"/>
      <point x="326" y="447"/>
      <point x="523" y="252"/>
      <point x="766" y="252" type="curve" smooth="yes"/>
      <point x="1009" y="252"/>
      <point x="1206" y="447"/>
      <point x="1206" y="690" type="curve" smooth="yes"/>
      <point x="1206" y="933"/>
      <point x="1009" y="1128"/>
      <point x="766" y="1128" type="curve" smooth="yes"/>
      <point x="523" y="1128"/>
      <point x="326" y="933"/>
    </contour>
    <contour>
      <point x="440" y="690" type="curve" smooth="yes"/>
      <point x="440" y="875"/>
      <point x="586" y="1026"/>
      <point x="766" y="1026" type="curve" smooth="yes"/>
      <point x="947" y="1026"/>
      <point x="1092" y="875"/>
      <point x="1092" y="690" type="curve" smooth="yes"/>
      <point x="1092" y="505"/>
      <point x="947" y="354"/>
      <point x="766" y="354" type="curve" smooth="yes"/>
      <point x="586" y="354"/>
      <point x="440" y="505"/>
    </contour>
    <contour>
      <point x="317" y="143" type="line"/>
      <point x="527" y="353" type="line"/>
      <point x="440" y="440" type="line"/>
      <point x="230" y="229" type="line"/>
    </contour>
    <contour>
      <point x="1015" y="1012" type="line"/>
      <point x="1102" y="926" type="line"/>
      <point x="1312" y="1136" type="line"/>
      <point x="1225" y="1223" type="line"/>
    </contour>
    <contour>
      <point x="227" y="1149" type="line"/>
      <point x="437" y="939" type="line"/>
      <point x="524" y="1025" type="line"/>
      <point x="314" y="1236" type="line"/>
    </contour>
    <contour>
      <point x="1013" y="359" type="line"/>
      <point x="1223" y="149" type="line"/>
      <point x="1310" y="235" type="line"/>
      <point x="1100" y="445" type="line"/>
    </contour>
  </outline>
</glyph>
<glyph name="ordfeminine" format="1">
  <advance width="854"/>
  <unicode hex="00AA"/>
  <outline>
    <contour>
      <point x="581" y="743" type="line"/>
      <point x="709" y="743" type="line"/>
      <point x="855" y="1569" type="line"/>
      <point x="710" y="1530" type="line"/>
      <point x="603" y="905" type="line"/>
      <point x="610" y="896" type="line"/>
    </contour>
    <contour>
      <point x="343" y="743" type="curve" smooth="yes"/>
      <point x="514" y="743"/>
      <point x="604" y="877"/>
      <point x="649" y="938" type="curve"/>
      <point x="651" y="1009" type="line"/>
      <point x="613" y="959"/>
      <point x="497" y="834"/>
      <point x="395" y="834" type="curve" smooth="yes"/>
      <point x="278" y="834"/>
      <point x="238" y="917"/>
      <point x="238" y="1051" type="curve" smooth="yes"/>
      <point x="238" y="1260"/>
      <point x="381" y="1498"/>
      <point x="590" y="1498" type="curve" smooth="yes"/>
      <point x="635" y="1498"/>
      <point x="707" y="1473"/>
      <point x="722" y="1424" type="curve"/>
      <point x="783" y="1546" type="line"/>
      <point x="739" y="1562"/>
      <point x="671" y="1577"/>
      <point x="608" y="1577" type="curve" smooth="yes"/>
      <point x="317" y="1576"/>
      <point x="104" y="1297"/>
      <point x="104" y="1040" type="curve" smooth="yes"/>
      <point x="104" y="857"/>
      <point x="185" y="743"/>
    </contour>
  </outline>
</glyph>
<glyph name="registered" format="1">
  <advance width="2061"/>
  <unicode hex="00AE"/>
  <outline>
    <contour>
      <point x="732" y="467" type="line"/>
      <point x="868" y="467" type="line"/>
      <point x="868" y="838" type="line"/>
      <point x="904" y="838"/>
      <point x="1007" y="838"/>
      <point x="1026" y="839" type="curve"/>
      <point x="1115" y="809"/>
      <point x="1163" y="697"/>
      <point x="1207" y="605" type="curve" smooth="yes"/>
      <point x="1232" y="552"/>
      <point x="1253" y="508"/>
      <point x="1282" y="468" type="curve"/>
      <point x="1438" y="467" type="line"/>
      <point x="1389" y="543"/>
      <point x="1368" y="577"/>
      <point x="1344" y="621" type="curve" smooth="yes"/>
      <point x="1299" y="706"/>
      <point x="1255" y="806"/>
      <point x="1181" y="858" type="curve"/>
      <point x="1338" y="893"/>
      <point x="1394" y="1007"/>
      <point x="1394" y="1148" type="curve" smooth="yes"/>
      <point x="1394" y="1294"/>
      <point x="1287" y="1410"/>
      <point x="1046" y="1410" type="curve" smooth="yes"/>
      <point x="942" y="1410"/>
      <point x="862" y="1403"/>
      <point x="792" y="1404" type="curve" smooth="yes"/>
      <point x="732" y="1404" type="line"/>
    </contour>
    <contour>
      <point x="868" y="940" type="curve"/>
      <point x="868" y="1299" type="line"/>
      <point x="907" y="1305"/>
      <point x="951" y="1307"/>
      <point x="1010" y="1308" type="curve" smooth="yes"/>
      <point x="1200" y="1312"/>
      <point x="1253" y="1236"/>
      <point x="1253" y="1131" type="curve" smooth="yes"/>
      <point x="1253" y="1004"/>
      <point x="1183" y="938"/>
      <point x="1034" y="937" type="curve" smooth="yes"/>
      <point x="1008" y="937"/>
      <point x="890" y="938"/>
    </contour>
    <contour>
      <point x="306" y="938" type="curve" smooth="yes"/>
      <point x="306" y="1349"/>
      <point x="620" y="1686"/>
      <point x="1036" y="1686" type="curve" smooth="yes"/>
      <point x="1453" y="1686"/>
      <point x="1767" y="1349"/>
      <point x="1767" y="938" type="curve" smooth="yes"/>
      <point x="1767" y="525"/>
      <point x="1452" y="190"/>
      <point x="1036" y="190" type="curve" smooth="yes"/>
      <point x="621" y="190"/>
      <point x="306" y="525"/>
    </contour>
    <contour>
      <point x="196" y="938" type="curve" smooth="yes"/>
      <point x="196" y="469"/>
      <point x="569" y="90"/>
      <point x="1036" y="90" type="curve" smooth="yes"/>
      <point x="1504" y="90"/>
      <point x="1877" y="469"/>
      <point x="1877" y="938" type="curve" smooth="yes"/>
      <point x="1877" y="1407"/>
      <point x="1505" y="1783"/>
      <point x="1036" y="1783" type="curve" smooth="yes"/>
      <point x="568" y="1783"/>
      <point x="196" y="1407"/>
    </contour>
  </outline>
</glyph>
<glyph name="mu" format="1">
  <advance width="1354"/>
  <unicode hex="00B5"/>
  <outline>
    <contour>
      <point x="341" y="100" type="line"/>
      <point x="360" y="27"/>
      <point x="458" y="-18"/>
      <point x="535" y="-19" type="curve" smooth="yes"/>
      <point x="708" y="-19"/>
      <point x="802" y="59"/>
      <point x="877" y="136" type="curve"/>
      <point x="875" y="27"/>
      <point x="932" y="-19"/>
      <point x="1009" y="-19" type="curve" smooth="yes"/>
      <point x="1129" y="-19"/>
      <point x="1221" y="90"/>
      <point x="1235" y="111" type="curve"/>
      <point x="1186" y="196" type="line"/>
      <point x="1147" y="150"/>
      <point x="1104" y="114"/>
      <point x="1062" y="114" type="curve" smooth="yes"/>
      <point x="1027" y="114"/>
      <point x="1015" y="160"/>
      <point x="1025" y="225" type="curve" smooth="yes"/>
      <point x="1149" y="1140" type="line"/>
      <point x="1001" y="1140" type="line"/>
      <point x="883" y="297" type="line" smooth="yes"/>
      <point x="824" y="222"/>
      <point x="695" y="115"/>
      <point x="576" y="115" type="curve" smooth="yes"/>
      <point x="470" y="115"/>
      <point x="372" y="168"/>
      <point x="386" y="327" type="curve" smooth="yes"/>
      <point x="386" y="326"/>
      <point x="466" y="890"/>
      <point x="475" y="967" type="curve" smooth="yes"/>
      <point x="492" y="1095"/>
      <point x="440" y="1150"/>
      <point x="366" y="1150" type="curve" smooth="yes"/>
      <point x="239" y="1150"/>
      <point x="153" y="1060"/>
      <point x="138" y="1039" type="curve"/>
      <point x="188" y="951" type="line"/>
      <point x="213" y="976"/>
      <point x="253" y="1008"/>
      <point x="293" y="1008" type="curve" smooth="yes"/>
      <point x="325" y="1008"/>
      <point x="327" y="956"/>
      <point x="318" y="894" type="curve" smooth="yes"/>
      <point x="130" y="-372" type="line"/>
      <point x="271" y="-372" type="line"/>
    </contour>
  </outline>
</glyph>
<glyph name="ordmasculine" format="1">
  <advance width="854"/>
  <unicode hex="00BA"/>
  <outline>
    <contour>
      <point x="422" y="733" type="curve" smooth="yes"/>
      <point x="640" y="729"/>
      <point x="861" y="903"/>
      <point x="861" y="1219" type="curve" smooth="yes"/>
      <point x="861" y="1434"/>
      <point x="737" y="1586"/>
      <point x="539" y="1589" type="curve" smooth="yes"/>
      <point x="336" y="1592"/>
      <point x="101" y="1415"/>
      <point x="101" y="1100" type="curve" smooth="yes"/>
      <point x="101" y="878"/>
      <point x="243" y="736"/>
    </contour>
    <contour>
      <point x="429" y="829" type="curve" smooth="yes"/>
      <point x="318" y="830"/>
      <point x="241" y="940"/>
      <point x="241" y="1113" type="curve" smooth="yes"/>
      <point x="241" y="1295"/>
      <point x="342" y="1496"/>
      <point x="529" y="1498" type="curve" smooth="yes"/>
      <point x="660" y="1499"/>
      <point x="719" y="1374"/>
      <point x="719" y="1206" type="curve" smooth="yes"/>
      <point x="719" y="1015"/>
      <point x="631" y="828"/>
    </contour>
  </outline>
</glyph>
<glyph name="AE" format="1">
  <advance width="1781"/>
  <unicode hex="00C6"/>
  <outline>
    <contour>
      <point x="239" y="459" type="line"/>
      <point x="922" y="459" type="line"/>
      <point x="923" y="575" type="line"/>
      <point x="241" y="575" type="line"/>
    </contour>
    <contour>
      <point x="-107" y="0" type="line"/>
      <point x="55" y="0" type="line"/>
      <point x="836" y="1425" type="line"/>
      <point x="972" y="1419" type="line"/>
      <point x="962" y="1530" type="line"/>
      <point x="412" y="1530" type="line"/>
      <point x="401" y="1453" type="line"/>
      <point x="699" y="1436" type="line"/>
    </contour>
    <contour>
      <point x="768" y="0" type="line"/>
      <point x="1658" y="0" type="line"/>
      <point x="1669" y="127" type="line"/>
      <point x="932" y="114" type="line"/>
      <point x="1010" y="728" type="line"/>
      <point x="1489" y="717" type="line"/>
      <point x="1498" y="844" type="line"/>
      <point x="1023" y="838" type="line"/>
      <point x="1097" y="1417" type="line"/>
      <point x="1711" y="1410" type="line"/>
      <point x="1717" y="1530" type="line"/>
      <point x="961" y="1530" type="line"/>
    </contour>
    <contour>
      <point x="1061" y="1700" type="move" name="top"/>
    </contour>
  </outline>
</glyph>
<glyph name="Oslash" format="1">
  <advance width="1378"/>
  <unicode hex="00D8"/>
  <outline>
    <contour>
      <point x="55" y="-83" type="line"/>
      <point x="125" y="-122" type="line"/>
      <point x="303" y="140" type="line"/>
      <point x="351" y="195" type="line"/>
      <point x="1091" y="1306" type="line"/>
      <point x="1134" y="1359" type="line"/>
      <point x="1312" y="1621" type="line"/>
      <point x="1242" y="1659" type="line"/>
      <point x="1075" y="1412" type="line"/>
      <point x="1031" y="1360" type="line"/>
      <point x="305" y="269" type="line"/>
      <point x="256" y="212" type="line"/>
    </contour>
    <contour>
      <point x="605" y="-16" type="curve" smooth="yes"/>
      <point x="1019" y="-16"/>
      <point x="1309" y="396"/>
      <point x="1300" y="917" type="curve" smooth="yes"/>
      <point x="1294" y="1263"/>
      <point x="1134" y="1548"/>
      <point x="813" y="1548" type="curve" smooth="yes"/>
      <point x="409" y="1548"/>
      <point x="102" y="1145"/>
      <point x="112" y="614" type="curve" smooth="yes"/>
      <point x="119" y="256"/>
      <point x="288" y="-16"/>
    </contour>
    <contour>
      <point x="629" y="100" type="curve" smooth="yes"/>
      <point x="402" y="100"/>
      <point x="274" y="278"/>
      <point x="269" y="644" type="curve" smooth="yes"/>
      <point x="263" y="1062"/>
      <point x="483" y="1428"/>
      <point x="789" y="1428" type="curve" smooth="yes"/>
      <point x="1023" y="1428"/>
      <point x="1137" y="1241"/>
      <point x="1143" y="889" type="curve" smooth="yes"/>
      <point x="1151" y="460"/>
      <point x="936" y="100"/>
    </contour>
  </outline>
</glyph>
<glyph name="Thorn" format="1">
  <advance width="1195"/>
  <unicode hex="00DE"/>
  <outline>
    <contour>
      <point x="308" y="297" type="line"/>
      <point x="338" y="293"/>
      <point x="403" y="286"/>
      <point x="510" y="286" type="curve" smooth="yes"/>
      <point x="877" y="286"/>
      <point x="1131" y="516"/>
      <point x="1126" y="887" type="curve" smooth="yes"/>
      <point x="1123" y="1147"/>
      <point x="968" y="1281"/>
      <point x="676" y="1281" type="curve" smooth="yes"/>
      <point x="568" y="1281"/>
      <point x="447" y="1264"/>
      <point x="367" y="1264" type="curve"/>
      <point x="412" y="1147" type="line"/>
      <point x="465" y="1156"/>
      <point x="600" y="1167"/>
      <point x="652" y="1167" type="curve" smooth="yes"/>
      <point x="883" y="1167"/>
      <point x="976" y="1053"/>
      <point x="974" y="874" type="curve" smooth="yes"/>
      <point x="970" y="578"/>
      <point x="816" y="407"/>
      <point x="515" y="404" type="curve" smooth="yes"/>
      <point x="443" y="404"/>
      <point x="362" y="412"/>
      <point x="323" y="419" type="curve"/>
      <point x="278" y="363" type="line"/>
    </contour>
    <contour>
      <point x="121" y="0" type="line"/>
      <point x="271" y="0" type="line"/>
      <point x="464" y="1530" type="line"/>
      <point x="314" y="1530" type="line"/>
    </contour>
  </outline>
</glyph>
<glyph name="germandbls" format="1">
  <advance width="1180"/>
  <unicode hex="00DF"/>
  <outline>
    <contour>
      <point x="85" y="3" type="line"/>
      <point x="233" y="3" type="line"/>
      <point x="343" y="884" type="line" smooth="yes"/>
      <point x="410" y="1381"/>
      <point x="559" y="1480"/>
      <point x="736" y="1480" type="curve" smooth="yes"/>
      <point x="879" y="1480"/>
      <point x="934" y="1391"/>
      <point x="934" y="1296" type="curve" smooth="yes"/>
      <point x="934" y="1171"/>
      <point x="862" y="1087"/>
      <point x="768" y="991" type="curve" smooth="yes"/>
      <point x="717" y="936"/>
      <point x="678" y="889"/>
      <point x="678" y="804" type="curve" smooth="yes"/>
      <point x="678" y="723"/>
      <point x="759" y="623"/>
      <point x="819" y="550" type="curve" smooth="yes"/>
      <point x="862" y="490"/>
      <point x="916" y="400"/>
      <point x="916" y="301" type="curve" smooth="yes"/>
      <point x="916" y="155"/>
      <point x="830" y="101"/>
      <point x="667" y="101" type="curve" smooth="yes"/>
      <point x="567" y="100"/>
      <point x="483" y="150"/>
      <point x="449" y="181" type="curve"/>
      <point x="429" y="37" type="line"/>
      <point x="473" y="12"/>
      <point x="580" y="-16"/>
      <point x="679" y="-16" type="curve" smooth="yes"/>
      <point x="921" y="-16"/>
      <point x="1073" y="112"/>
      <point x="1073" y="308" type="curve" smooth="yes"/>
      <point x="1073" y="451"/>
      <point x="1005" y="551"/>
      <point x="948" y="629" type="curve" smooth="yes"/>
      <point x="886" y="711"/>
      <point x="822" y="767"/>
      <point x="822" y="824" type="curve" smooth="yes"/>
      <point x="822" y="956"/>
      <point x="1088" y="1035"/>
      <point x="1088" y="1301" type="curve" smooth="yes"/>
      <point x="1088" y="1487"/>
      <point x="961" y="1588"/>
      <point x="778" y="1588" type="curve" smooth="yes"/>
      <point x="566" y="1588"/>
      <point x="280" y="1529"/>
      <point x="202" y="929" type="curve" smooth="yes"/>
    </contour>
  </outline>
</glyph>
<glyph name="ae" format="1">
  <advance width="1624"/>
  <unicode hex="00E6"/>
  <outline>
    <contour>
      <point x="749" y="510" type="line"/>
      <point x="689" y="393"/>
      <point x="559" y="100"/>
      <point x="391" y="100" type="curve" smooth="yes"/>
      <point x="286" y="100"/>
      <point x="235" y="207"/>
      <point x="235" y="433" type="curve" smooth="yes"/>
      <point x="235" y="705"/>
      <point x="388" y="1046"/>
      <point x="690" y="1046" type="curve" smooth="yes"/>
      <point x="781" y="1046"/>
      <point x="880" y="1008"/>
      <point x="951" y="953" type="curve"/>
      <point x="1038" y="1052" type="line"/>
      <point x="909" y="1144"/>
      <point x="805" y="1156"/>
      <point x="714" y="1156" type="curve" smooth="yes"/>
      <point x="275" y="1156"/>
      <point x="81" y="728"/>
      <point x="81" y="415" type="curve" smooth="yes"/>
      <point x="81" y="165"/>
      <point x="151" y="-16"/>
      <point x="358" y="-16" type="curve" smooth="yes"/>
      <point x="594" y="-16"/>
      <point x="722" y="290"/>
      <point x="768" y="416" type="curve"/>
    </contour>
    <contour>
      <point x="683" y="441" type="curve" smooth="yes"/>
      <point x="677" y="216"/>
      <point x="783" y="-16"/>
      <point x="1072" y="-16" type="curve" smooth="yes"/>
      <point x="1266" y="-16"/>
      <point x="1423" y="107"/>
      <point x="1480" y="186" type="curve"/>
      <point x="1437" y="273" type="line"/>
      <point x="1323" y="157"/>
      <point x="1198" y="102"/>
      <point x="1089" y="102" type="curve" smooth="yes"/>
      <point x="877" y="102"/>
      <point x="833" y="288"/>
      <point x="840" y="443" type="curve"/>
      <point x="1071" y="455"/>
      <point x="1552" y="575"/>
      <point x="1552" y="906" type="curve" smooth="yes"/>
      <point x="1552" y="1047"/>
      <point x="1463" y="1156"/>
      <point x="1273" y="1156" type="curve" smooth="yes"/>
      <point x="930" y="1156"/>
      <point x="693" y="839"/>
    </contour>
    <contour>
      <point x="845" y="550" type="curve"/>
      <point x="866" y="778"/>
      <point x="1016" y="1043"/>
      <point x="1241" y="1043" type="curve" smooth="yes"/>
      <point x="1340" y="1043"/>
      <point x="1403" y="997"/>
      <point x="1403" y="893" type="curve" smooth="yes"/>
      <point x="1403" y="683"/>
      <point x="1070" y="557"/>
    </contour>
    <contour>
      <point x="917" y="1258" type="move" name="top"/>
    </contour>
  </outline>
</glyph>
<glyph name="oslash" format="1">
  <advance width="1134"/>
  <unicode hex="00F8"/>
  <outline>
    <contour>
      <point x="47" y="-88" type="line"/>
      <point x="116" y="-126" type="line"/>
      <point x="254" y="74" type="line"/>
      <point x="307" y="136" type="line"/>
      <point x="851" y="977" type="line"/>
      <point x="902" y="1038" type="line"/>
      <point x="1056" y="1260" type="line"/>
      <point x="987" y="1298" type="line"/>
      <point x="845" y="1094" type="line"/>
      <point x="794" y="1033" type="line"/>
      <point x="249" y="190" type="line"/>
      <point x="198" y="132" type="line"/>
    </contour>
    <contour>
      <point x="252" y="449" type="curve" smooth="yes"/>
      <point x="247" y="717"/>
      <point x="382" y="1046"/>
      <point x="635" y="1046" type="curve" smooth="yes"/>
      <point x="807" y="1046"/>
      <point x="876" y="914"/>
      <point x="879" y="695" type="curve" smooth="yes"/>
      <point x="883" y="427"/>
      <point x="755" y="99"/>
      <point x="505" y="99" type="curve" smooth="yes"/>
      <point x="337" y="99"/>
      <point x="255" y="226"/>
    </contour>
    <contour>
      <point x="98" y="446" type="curve" smooth="yes"/>
      <point x="103" y="155"/>
      <point x="232" y="-14"/>
      <point x="481" y="-14" type="curve" smooth="yes"/>
      <point x="814" y="-14"/>
      <point x="1041" y="338"/>
      <point x="1035" y="698" type="curve" smooth="yes"/>
      <point x="1030" y="989"/>
      <point x="909" y="1158"/>
      <point x="659" y="1158" type="curve" smooth="yes"/>
      <point x="326" y="1158"/>
      <point x="92" y="809"/>
    </contour>
  </outline>
</glyph>
<glyph name="Aogonek" format="1">
  <advance width="1265"/>
  <unicode hex="0104"/>
  <outline>
    <contour>
      <point x="742" y="-287" type="curve" smooth="yes"/>
      <point x="742" y="-345"/>
      <point x="793" y="-436"/>
      <point x="930" y="-436" type="curve" smooth="yes"/>
      <point x="1046" y="-436"/>
      <point x="1131" y="-380"/>
      <point x="1176" y="-342" type="curve"/>
      <point x="1136" y="-264" type="line"/>
      <point x="1087" y="-302"/>
      <point x="1033" y="-322"/>
      <point x="978" y="-322" type="curve" smooth="yes"/>
      <point x="927" y="-322"/>
      <point x="890" y="-294"/>
      <point x="890" y="-242" type="curve" smooth="yes"/>
      <point x="890" y="-148"/>
      <point x="1044" y="-52"/>
      <point x="1124" y="0" type="curve"/>
      <point x="1078" y="44" type="line"/>
      <point x="1005" y="3" type="line"/>
      <point x="917" y="-46"/>
      <point x="742" y="-146"/>
    </contour>
    <component base="A"/>
  </outline>
</glyph>
<glyph name="Eogonek" format="1">
  <advance width="1138"/>
  <unicode hex="0118"/>
  <outline>
    <contour>
      <point x="560" y="-287" type="curve" smooth="yes"/>
      <point x="560" y="-345"/>
      <point x="611" y="-436"/>
      <point x="748" y="-436" type="curve" smooth="yes"/>
      <point x="864" y="-436"/>
      <point x="950" y="-380"/>
      <point x="994" y="-342" type="curve"/>
      <point x="955" y="-264" type="line"/>
      <point x="906" y="-302"/>
      <point x="851" y="-322"/>
      <point x="796" y="-322" type="curve" smooth="yes"/>
      <point x="745" y="-322"/>
      <point x="708" y="-294"/>
      <point x="708" y="-242" type="curve" smooth="yes"/>
      <point x="708" y="-148"/>
      <point x="868" y="-52"/>
      <point x="947" y="0" type="curve"/>
      <point x="901" y="44" type="line"/>
      <point x="829" y="3" type="line"/>
      <point x="741" y="-46"/>
      <point x="560" y="-146"/>
    </contour>
    <component base="E"/>
  </outline>
</glyph>
<glyph name="Iogonek" format="1">
  <advance width="572"/>
  <unicode hex="012E"/>
  <outline>
    <contour>
      <point x="147" y="3" type="line"/>
      <point x="58" y="-46"/>
      <point x="-122" y="-146"/>
      <point x="-122" y="-287" type="curve" smooth="yes"/>
      <point x="-122" y="-345"/>
      <point x="-72" y="-436"/>
      <point x="65" y="-436" type="curve" smooth="yes"/>
      <point x="181" y="-436"/>
      <point x="267" y="-380"/>
      <point x="312" y="-342" type="curve"/>
      <point x="272" y="-264" type="line"/>
      <point x="223" y="-302"/>
      <point x="169" y="-322"/>
      <point x="114" y="-322" type="curve" smooth="yes"/>
      <point x="63" y="-322"/>
      <point x="26" y="-294"/>
      <point x="26" y="-242" type="curve" smooth="yes"/>
      <point x="26" y="-148"/>
      <point x="185" y="-52"/>
      <point x="265" y="0" type="curve"/>
      <point x="219" y="44" type="line"/>
    </contour>
    <component base="I"/>
  </outline>
</glyph>
<glyph name="dotlessi" format="1">
  <advance width="564"/>
  <unicode hex="0131"/>
  <outline>
    <contour>
      <point x="133" y="0" type="line"/>
      <point x="281" y="0" type="line"/>
      <point x="436" y="1144" type="line"/>
      <point x="287" y="1144" type="line"/>
    </contour>
    <contour>
      <point x="397" y="1258" type="move" name="top"/>
    </contour>
    <contour>
      <point x="365" y="25" type="move" name="bottom"/>
    </contour>
  </outline>
</glyph>
<glyph name="eng" format="1">
  <advance width="1194"/>
  <unicode hex="014B"/>
  <outline>
    <contour>
      <point x="385" y="-416" type="curve"/>
      <point x="358" y="-478" type="line"/>
      <point x="380" y="-502"/>
      <point x="442" y="-518"/>
      <point x="505" y="-518" type="curve" smooth="yes"/>
      <point x="728" y="-518"/>
      <point x="885" y="-350"/>
      <point x="940" y="0" type="curve" smooth="yes"/>
      <point x="992" y="320"/>
      <point x="1058" y="708"/>
      <point x="1061" y="863" type="curve" smooth="yes"/>
      <point x="1061" y="1070"/>
      <point x="987" y="1156"/>
      <point x="836" y="1156" type="curve" smooth="yes"/>
      <point x="612" y="1156"/>
      <point x="365" y="930"/>
      <point x="273" y="735" type="curve"/>
      <point x="290" y="632" type="line"/>
      <point x="373" y="808"/>
      <point x="620" y="1019"/>
      <point x="775" y="1019" type="curve" smooth="yes"/>
      <point x="875" y="1019"/>
      <point x="909" y="963"/>
      <point x="909" y="855" type="curve" smooth="yes"/>
      <point x="909" y="688"/>
      <point x="841" y="309"/>
      <point x="799" y="49" type="curve" smooth="yes"/>
      <point x="759" y="-198"/>
      <point x="683" y="-437"/>
      <point x="479" y="-437" type="curve" smooth="yes"/>
      <point x="459" y="-437"/>
      <point x="409" y="-429"/>
    </contour>
    <contour>
      <point x="93" y="0" type="line"/>
      <point x="241" y="0" type="line"/>
      <point x="359" y="868" type="line"/>
      <point x="389" y="1140" type="line"/>
      <point x="248" y="1140" type="line"/>
    </contour>
  </outline>
</glyph>
<glyph name="Tbar" format="1">
  <advance width="1122"/>
  <unicode hex="0166"/>
  <outline>
    <contour>
      <point x="219" y="733" type="line"/>
      <point x="961" y="733" type="line"/>
      <point x="974" y="833" type="line"/>
      <point x="232" y="833" type="line"/>
    </contour>
    <contour>
      <point x="561" y="-170" type="move" name="btm"/>
    </contour>
    <contour>
      <point x="772" y="1700" type="move" name="top"/>
    </contour>
    <component base="T"/>
  </outline>
</glyph>
<glyph name="uni02c9" format="1">
  <advance width="614"/>
  <unicode hex="02C9"/>
  <outline>
    <contour>
      <point x="59" y="1748" type="line"/>
      <point x="568" y="1748" type="line"/>
      <point x="573" y="1862" type="line"/>
      <point x="63" y="1862" type="line"/>
    </contour>
    <contour>
      <point x="310" y="1700" type="move" name="_top"/>
    </contour>
  </outline>
</glyph>
<glyph name="breve" format="1">
  <advance width="717"/>
  <unicode hex="02D8"/>
  <outline>
    <contour>
      <point x="348" y="1305" type="curve" smooth="yes"/>
      <point x="538" y="1305"/>
      <point x="665" y="1470"/>
      <point x="681" y="1616" type="curve" smooth="yes"/>
      <point x="683" y="1627"/>
      <point x="684" y="1638"/>
      <point x="683" y="1648" type="curve"/>
      <point x="582" y="1648" type="line"/>
      <point x="567" y="1564"/>
      <point x="501" y="1417"/>
      <point x="353" y="1417" type="curve" smooth="yes"/>
      <point x="218" y="1417"/>
      <point x="170" y="1523"/>
      <point x="159" y="1618" type="curve" smooth="yes"/>
      <point x="157" y="1628"/>
      <point x="156" y="1640"/>
      <point x="156" y="1648" type="curve"/>
      <point x="53" y="1648" type="line"/>
      <point x="52" y="1642"/>
      <point x="52" y="1633"/>
      <point x="52" y="1627" type="curve" smooth="yes"/>
      <point x="52" y="1467"/>
      <point x="140" y="1305"/>
    </contour>
    <contour>
      <point x="350" y="1255" type="move" name="_top"/>
    </contour>
  </outline>
</glyph>
<glyph name="dotaccent" format="1">
  <advance width="387"/>
  <unicode hex="02D9"/>
  <outline>
    <contour>
      <point x="147" y="1426" type="curve" smooth="yes"/>
      <point x="208" y="1426"/>
      <point x="260" y="1479"/>
      <point x="264" y="1546" type="curve" smooth="yes"/>
      <point x="267" y="1600"/>
      <point x="231" y="1640"/>
      <point x="172" y="1640" type="curve" smooth="yes"/>
      <point x="116" y="1640"/>
      <point x="64" y="1590"/>
      <point x="61" y="1525" type="curve" smooth="yes"/>
      <point x="57" y="1468"/>
      <point x="96" y="1426"/>
    </contour>
    <contour>
      <point x="141" y="1255" type="move" name="_top"/>
    </contour>
  </outline>
</glyph>
<glyph name="ogonek" format="1">
  <advance width="487"/>
  <unicode hex="02DB"/>
  <outline>
    <contour>
      <point x="10" y="-290" type="curve" smooth="yes"/>
      <point x="10" y="-348"/>
      <point x="56" y="-430"/>
      <point x="185" y="-430" type="curve" smooth="yes"/>
      <point x="301" y="-430"/>
      <point x="387" y="-375"/>
      <point x="431" y="-336" type="curve"/>
      <point x="392" y="-258" type="line"/>
      <point x="343" y="-296"/>
      <point x="288" y="-317"/>
      <point x="233" y="-317" type="curve" smooth="yes"/>
      <point x="194" y="-317"/>
      <point x="158" y="-297"/>
      <point x="158" y="-245" type="curve" smooth="yes"/>
      <point x="158" y="-154"/>
      <point x="308" y="-52"/>
      <point x="387" y="0" type="curve"/>
      <point x="342" y="46" type="line"/>
      <point x="265" y="0" type="line"/>
      <point x="178" y="-49"/>
      <point x="10" y="-152"/>
    </contour>
    <contour>
      <point x="301" y="-170" type="move" name="_btm"/>
    </contour>
  </outline>
</glyph>
<glyph name="dagger" format="1">
  <advance width="815"/>
  <unicode hex="2020"/>
  <outline>
    <contour>
      <point x="306" y="151" type="line"/>
      <point x="396" y="151" type="line"/>
      <point x="554" y="1008" type="line"/>
      <point x="566" y="1146" type="line"/>
      <point x="857" y="1146" type="line"/>
      <point x="873" y="1260" type="line"/>
      <point x="566" y="1260" type="line"/>
      <point x="622" y="1469" type="line"/>
      <point x="651" y="1646" type="line"/>
      <point x="507" y="1646" type="line"/>
      <point x="481" y="1469" type="line"/>
      <point x="470" y="1260" type="line"/>
      <point x="154" y="1260" type="line"/>
      <point x="138" y="1146" type="line"/>
      <point x="437" y="1146" type="line"/>
      <point x="410" y="1008" type="line"/>
    </contour>
  </outline>
</glyph>
<glyph name="ellipsis" format="1">
  <advance width="1509"/>
  <unicode hex="2026"/>
  <outline>
    <contour>
      <point x="107" y="85" type="curve" smooth="yes"/>
      <point x="98" y="18"/>
      <point x="135" y="-17"/>
      <point x="190" y="-17" type="curve" smooth="yes"/>
      <point x="250" y="-17"/>
      <point x="308" y="26"/>
      <point x="318" y="101" type="curve" smooth="yes"/>
      <point x="326" y="160"/>
      <point x="301" y="203"/>
      <point x="228" y="203" type="curve" smooth="yes"/>
      <point x="170" y="203"/>
      <point x="116" y="155"/>
    </contour>
    <contour>
      <point x="610" y="85" type="curve" smooth="yes"/>
      <point x="601" y="18"/>
      <point x="637" y="-17"/>
      <point x="692" y="-17" type="curve" smooth="yes"/>
      <point x="753" y="-17"/>
      <point x="811" y="26"/>
      <point x="821" y="101" type="curve" smooth="yes"/>
      <point x="829" y="160"/>
      <point x="804" y="203"/>
      <point x="731" y="203" type="curve" smooth="yes"/>
      <point x="673" y="203"/>
      <point x="619" y="155"/>
    </contour>
    <contour>
      <point x="1112" y="85" type="curve" smooth="yes"/>
      <point x="1103" y="18"/>
      <point x="1140" y="-17"/>
      <point x="1195" y="-17" type="curve" smooth="yes"/>
      <point x="1256" y="-17"/>
      <point x="1313" y="26"/>
      <point x="1323" y="101" type="curve" smooth="yes"/>
      <point x="1331" y="160"/>
      <point x="1306" y="203"/>
      <point x="1234" y="203" type="curve" smooth="yes"/>
      <point x="1175" y="203"/>
      <point x="1122" y="155"/>
    </contour>
  </outline>
</glyph>
<glyph name="minute" format="1">
  <advance width="623"/>
  <unicode hex="2032"/>
  <outline>
    <contour>
      <point x="301" y="1190" type="line"/>
      <point x="407" y="1190" type="line"/>
      <point x="591" y="1782" type="line"/>
      <point x="435" y="1782" type="line"/>
    </contour>
  </outline>
</glyph>
<glyph name="guilsinglleft" format="1">
  <advance width="1190"/>
  <unicode hex="2039"/>
  <outline>
    <contour>
      <point x="237" y="551" type="line"/>
      <point x="820" y="152" type="line"/>
      <point x="873" y="237" type="line"/>
      <point x="421" y="614" type="line"/>
      <point x="977" y="997" type="line"/>
      <point x="948" y="1086" type="line"/>
      <point x="253" y="671" type="line"/>
    </contour>
  </outline>
</glyph>
<glyph name="colonmonetary" format="1">
  <advance width="1327"/>
  <unicode hex="20A1"/>
  <outline>
    <contour>
      <point x="476" y="-354" type="line"/>
      <point x="385" y="-354" type="line"/>
      <point x="463" y="40" type="line"/>
      <point x="257" y="153"/>
      <point x="174" y="412"/>
      <point x="174" y="653" type="curve" smooth="yes"/>
      <point x="174" y="1107"/>
      <point x="413" y="1429"/>
      <point x="755" y="1520" type="curve"/>
      <point x="814" y="1815" type="line"/>
      <point x="905" y="1815" type="line"/>
      <point x="850" y="1539" type="line"/>
      <point x="885" y="1543"/>
      <point x="921" y="1546"/>
      <point x="957" y="1546" type="curve" smooth="yes"/>
      <point x="977" y="1546"/>
      <point x="996" y="1545"/>
      <point x="1015" y="1544" type="curve"/>
      <point x="1069" y="1815" type="line"/>
      <point x="1159" y="1815" type="line"/>
      <point x="1103" y="1535" type="line"/>
      <point x="1179" y="1524"/>
      <point x="1236" y="1507"/>
      <point x="1281" y="1492" type="curve"/>
      <point x="1232" y="1371" type="line"/>
      <point x="1209" y="1387"/>
      <point x="1157" y="1408"/>
      <point x="1081" y="1420" type="curve"/>
      <point x="820" y="102" type="line"/>
      <point x="957" y="117"/>
      <point x="1053" y="157"/>
      <point x="1129" y="208" type="curve"/>
      <point x="1172" y="111" type="line"/>
      <point x="1113" y="50"/>
      <point x="970" y="1"/>
      <point x="797" y="-12" type="curve"/>
      <point x="730" y="-354" type="line"/>
      <point x="640" y="-354" type="line"/>
      <point x="707" y="-16" type="line"/>
      <point x="698" y="-16" type="line" smooth="yes"/>
      <point x="642" y="-16"/>
      <point x="592" y="-8"/>
      <point x="547" y="5" type="curve"/>
    </contour>
    <contour>
      <point x="571" y="126" type="line"/>
      <point x="615" y="107"/>
      <point x="665" y="97"/>
      <point x="720" y="97" type="curve" smooth="yes"/>
      <point x="729" y="97" type="line"/>
      <point x="993" y="1430" type="line"/>
      <point x="973" y="1431"/>
      <point x="952" y="1432"/>
      <point x="931" y="1432" type="curve" smooth="yes"/>
      <point x="895" y="1432"/>
      <point x="860" y="1429"/>
      <point x="827" y="1423" type="curve"/>
    </contour>
    <contour>
      <point x="334" y="677" type="curve" smooth="yes"/>
      <point x="331" y="467"/>
      <point x="376" y="279"/>
      <point x="490" y="178" type="curve"/>
      <point x="731" y="1398" type="line"/>
      <point x="490" y="1310"/>
      <point x="339" y="1053"/>
    </contour>
  </outline>
</glyph>
<glyph name="lira" format="1">
  <advance width="1474"/>
  <unicode hex="20A4"/>
  <outline>
    <contour>
      <point x="196" y="869" type="line"/>
      <point x="210" y="975" type="line"/>
      <point x="462" y="975" type="line"/>
      <point x="463" y="980" type="line" smooth="yes"/>
      <point x="506" y="1268"/>
      <point x="671" y="1545"/>
      <point x="995" y="1545" type="curve" smooth="yes"/>
      <point x="1071" y="1545"/>
      <point x="1189" y="1534"/>
      <point x="1252" y="1465" type="curve"/>
      <point x="1189" y="1361" type="line"/>
      <point x="1163" y="1390"/>
      <point x="1084" y="1437"/>
      <point x="972" y="1437" type="curve" smooth="yes"/>
      <point x="807" y="1437"/>
      <point x="678" y="1334"/>
      <point x="617" y="982" type="curve" smooth="yes"/>
      <point x="616" y="975" type="line"/>
      <point x="1011" y="975" type="line"/>
      <point x="997" y="869" type="line"/>
      <point x="597" y="869" type="line"/>
      <point x="568" y="701" type="line"/>
      <point x="954" y="701" type="line"/>
      <point x="939" y="595" type="line"/>
      <point x="549" y="595" type="line"/>
      <point x="517" y="403"/>
      <point x="481" y="290"/>
      <point x="401" y="173" type="curve"/>
      <point x="500" y="146"/>
      <point x="650" y="83"/>
      <point x="828" y="83" type="curve" smooth="yes"/>
      <point x="1075" y="83"/>
      <point x="1169" y="182"/>
      <point x="1169" y="319" type="curve" smooth="yes"/>
      <point x="1169" y="395"/>
      <point x="1125" y="472"/>
      <point x="1073" y="503" type="curve"/>
      <point x="1192" y="594" type="line"/>
      <point x="1269" y="530"/>
      <point x="1327" y="436"/>
      <point x="1327" y="323" type="curve" smooth="yes"/>
      <point x="1327" y="178"/>
      <point x="1250" y="-25"/>
      <point x="847" y="-25" type="curve" smooth="yes"/>
      <point x="617" y="-25"/>
      <point x="446" y="66"/>
      <point x="316" y="93" type="curve"/>
      <point x="271" y="37"/>
      <point x="183" y="-15"/>
      <point x="114" y="-15" type="curve" smooth="yes"/>
      <point x="82" y="-15"/>
      <point x="48" y="2"/>
      <point x="48" y="45" type="curve" smooth="yes"/>
      <point x="48" y="104"/>
      <point x="133" y="166"/>
      <point x="269" y="193" type="curve"/>
      <point x="336" y="247"/>
      <point x="366" y="393"/>
      <point x="379" y="488" type="curve"/>
      <point x="397" y="595" type="line"/>
      <point x="138" y="595" type="line"/>
      <point x="153" y="701" type="line"/>
      <point x="415" y="701" type="line"/>
      <point x="444" y="869" type="line"/>
    </contour>
  </outline>
</glyph>
<glyph name="uni20A6" format="1">
  <advance width="1818"/>
  <unicode hex="20A6"/>
  <outline>
    <contour>
      <point x="130" y="910" type="line"/>
      <point x="145" y="1022" type="line"/>
      <point x="413" y="1022" type="line"/>
      <point x="482" y="1524" type="line"/>
      <point x="616" y="1524" type="line"/>
      <point x="887" y="1022" type="line"/>
      <point x="1427" y="1022" type="line"/>
      <point x="1495" y="1524" type="line"/>
      <point x="1636" y="1524" type="line"/>
      <point x="1567" y="1022" type="line"/>
      <point x="1857" y="1022" type="line"/>
      <point x="1842" y="910" type="line"/>
      <point x="1552" y="910" type="line"/>
      <point x="1512" y="617" type="line"/>
      <point x="1786" y="617" type="line"/>
      <point x="1771" y="505" type="line"/>
      <point x="1497" y="505" type="line"/>
      <point x="1429" y="0" type="line"/>
      <point x="1299" y="0" type="line"/>
      <point x="1025" y="505" type="line"/>
      <point x="484" y="505" type="line"/>
      <point x="416" y="0" type="line"/>
      <point x="274" y="0" type="line"/>
      <point x="343" y="505" type="line"/>
      <point x="65" y="505" type="line"/>
      <point x="81" y="617" type="line"/>
      <point x="358" y="617" type="line"/>
      <point x="398" y="910" type="line"/>
    </contour>
    <contour>
      <point x="737" y="1035" type="line"/>
      <point x="592" y="1315" type="line"/>
      <point x="554" y="1022" type="line"/>
      <point x="744" y="1022" type="line"/>
    </contour>
    <contour>
      <point x="948" y="910" type="line"/>
      <point x="1107" y="617" type="line"/>
      <point x="1372" y="617" type="line"/>
      <point x="1412" y="910" type="line"/>
    </contour>
    <contour>
      <point x="539" y="910" type="line"/>
      <point x="499" y="617" type="line"/>
      <point x="964" y="617" type="line"/>
      <point x="805" y="910" type="line"/>
    </contour>
    <contour>
      <point x="1316" y="193" type="line"/>
      <point x="1353" y="473" type="line"/>
      <point x="1357" y="505" type="line"/>
      <point x="1167" y="505" type="line"/>
      <point x="1199" y="447" type="line"/>
    </contour>
  </outline>
</glyph>
<glyph name="peseta" format="1">
  <advance width="1442"/>
  <unicode hex="20A7"/>
  <outline>
    <contour>
      <point x="129" y="982" type="line"/>
      <point x="144" y="1095" type="line"/>
      <point x="361" y="1095" type="line"/>
      <point x="416" y="1531" type="line"/>
      <point x="504" y="1531" type="line" smooth="yes"/>
      <point x="615" y="1531"/>
      <point x="718" y="1548"/>
      <point x="826" y="1548" type="curve" smooth="yes"/>
      <point x="1115" y="1548"/>
      <point x="1279" y="1423"/>
      <point x="1283" y="1158" type="curve" smooth="yes"/>
      <point x="1283" y="1135"/>
      <point x="1282" y="1115"/>
      <point x="1281" y="1095" type="curve"/>
      <point x="1500" y="1095" type="line"/>
      <point x="1485" y="982" type="line"/>
      <point x="1267" y="982" type="line"/>
      <point x="1206" y="695"/>
      <point x="975" y="528"/>
      <point x="669" y="528" type="curve" smooth="yes"/>
      <point x="575" y="528"/>
      <point x="473" y="538"/>
      <point x="442" y="541" type="curve"/>
      <point x="374" y="1" type="line"/>
      <point x="223" y="1" type="line"/>
      <point x="346" y="982" type="line"/>
    </contour>
    <contour>
      <point x="551" y="1414" type="curve"/>
      <point x="511" y="1095" type="line"/>
      <point x="1129" y="1095" type="line"/>
      <point x="1130" y="1111"/>
      <point x="1131" y="1127"/>
      <point x="1131" y="1144" type="curve" smooth="yes"/>
      <point x="1134" y="1336"/>
      <point x="1027" y="1434"/>
      <point x="803" y="1434" type="curve" smooth="yes"/>
      <point x="739" y="1434"/>
      <point x="621" y="1422"/>
    </contour>
    <contour>
      <point x="457" y="663" type="line"/>
      <point x="497" y="655"/>
      <point x="611" y="646"/>
      <point x="674" y="646" type="curve"/>
      <point x="918" y="649"/>
      <point x="1064" y="765"/>
      <point x="1113" y="982" type="curve"/>
      <point x="497" y="982" type="line"/>
    </contour>
  </outline>
</glyph>
<glyph name="uni20AA" format="1">
  <advance width="1839"/>
  <unicode hex="20AA"/>
  <outline>
    <contour>
      <point x="1537" y="1522" type="curve"/>
      <point x="1667" y="1522" type="line"/>
      <point x="1476" y="0" type="line"/>
      <point x="999" y="0" type="line" smooth="yes"/>
      <point x="771" y="0"/>
      <point x="613" y="91"/>
      <point x="640" y="326" type="curve"/>
      <point x="746" y="1166" type="line"/>
      <point x="888" y="1166" type="line"/>
      <point x="775" y="313" type="line"/>
      <point x="759" y="166"/>
      <point x="852" y="111"/>
      <point x="1092" y="111" type="curve" smooth="yes"/>
      <point x="1364" y="111" type="line"/>
      <point x="1417" y="589"/>
      <point x="1481" y="1044"/>
    </contour>
    <contour>
      <point x="361" y="0" type="line"/>
      <point x="229" y="0" type="line"/>
      <point x="420" y="1522" type="line"/>
      <point x="974" y="1522" type="line" smooth="yes"/>
      <point x="1279" y="1522"/>
      <point x="1284" y="1308"/>
      <point x="1260" y="1102" type="curve"/>
      <point x="1160" y="367" type="line"/>
      <point x="1019" y="367" type="line"/>
      <point x="1123" y="1129" type="line"/>
      <point x="1144" y="1310"/>
      <point x="1125" y="1407"/>
      <point x="904" y="1407" type="curve" smooth="yes"/>
      <point x="538" y="1407" type="line"/>
    </contour>
  </outline>
</glyph>
<glyph name="Euro" format="1">
  <advance width="1381"/>
  <unicode hex="20AC"/>
  <outline>
    <contour>
      <point x="26" y="562" type="line"/>
      <point x="964" y="562" type="line"/>
      <point x="979" y="670" type="line"/>
      <point x="42" y="670" type="line"/>
    </contour>
    <contour>
      <point x="234" y="653" type="curve" smooth="yes"/>
      <point x="233" y="337"/>
      <point x="361" y="-16"/>
      <point x="705" y="-16" type="curve" smooth="yes"/>
      <point x="906" y="-16"/>
      <point x="1079" y="39"/>
      <point x="1142" y="111" type="curve"/>
      <point x="1099" y="215" type="line"/>
      <point x="1015" y="154"/>
      <point x="900" y="97"/>
      <point x="727" y="97" type="curve" smooth="yes"/>
      <point x="482" y="97"/>
      <point x="389" y="338"/>
      <point x="394" y="655" type="curve" smooth="yes"/>
      <point x="400" y="1103"/>
      <point x="572" y="1432"/>
      <point x="894" y="1432" type="curve" smooth="yes"/>
      <point x="1054" y="1432"/>
      <point x="1159" y="1397"/>
      <point x="1195" y="1371" type="curve"/>
      <point x="1244" y="1492" type="line"/>
      <point x="1173" y="1515"/>
      <point x="1083" y="1546"/>
      <point x="935" y="1546" type="curve" smooth="yes"/>
      <point x="538" y="1546"/>
      <point x="234" y="1192"/>
    </contour>
    <contour>
      <point x="75" y="917" type="line"/>
      <point x="1013" y="917" type="line"/>
      <point x="1028" y="1025" type="line"/>
      <point x="91" y="1025" type="line"/>
    </contour>
  </outline>
</glyph>
<glyph name="uni20B1" format="1">
  <advance width="1441"/>
  <unicode hex="20B1"/>
  <outline>
    <contour>
      <point x="159" y="1138" type="line"/>
      <point x="171" y="1220" type="line"/>
      <point x="377" y="1220" type="line"/>
      <point x="416" y="1531" type="line"/>
      <point x="504" y="1531" type="line" smooth="yes"/>
      <point x="615" y="1531"/>
      <point x="718" y="1548"/>
      <point x="826" y="1548" type="curve" smooth="yes"/>
      <point x="1091" y="1548"/>
      <point x="1251" y="1443"/>
      <point x="1279" y="1220" type="curve"/>
      <point x="1514" y="1220" type="line"/>
      <point x="1502" y="1138" type="line"/>
      <point x="1283" y="1138" type="line"/>
      <point x="1282" y="1061"/>
      <point x="1272" y="991"/>
      <point x="1253" y="928" type="curve"/>
      <point x="1484" y="928" type="line"/>
      <point x="1472" y="846" type="line"/>
      <point x="1221" y="846" type="line"/>
      <point x="1124" y="642"/>
      <point x="922" y="528"/>
      <point x="669" y="528" type="curve" smooth="yes"/>
      <point x="575" y="528"/>
      <point x="473" y="538"/>
      <point x="442" y="541" type="curve"/>
      <point x="374" y="1" type="line"/>
      <point x="223" y="1" type="line"/>
      <point x="329" y="846" type="line"/>
      <point x="129" y="846" type="line"/>
      <point x="141" y="928" type="line"/>
      <point x="340" y="928" type="line"/>
      <point x="366" y="1138" type="line"/>
    </contour>
    <contour>
      <point x="551" y="1414" type="curve"/>
      <point x="526" y="1220" type="line"/>
      <point x="1125" y="1220" type="line"/>
      <point x="1099" y="1363"/>
      <point x="992" y="1434"/>
      <point x="803" y="1434" type="curve" smooth="yes"/>
      <point x="739" y="1434"/>
      <point x="621" y="1422"/>
    </contour>
    <contour>
      <point x="1098" y="928" type="line"/>
      <point x="1118" y="989"/>
      <point x="1129" y="1059"/>
      <point x="1131" y="1138" type="curve"/>
      <point x="516" y="1138" type="line"/>
      <point x="490" y="928" type="line"/>
    </contour>
    <contour>
      <point x="457" y="663" type="line"/>
      <point x="497" y="655"/>
      <point x="611" y="646"/>
      <point x="674" y="646" type="curve"/>
      <point x="861" y="649"/>
      <point x="990" y="717"/>
      <point x="1062" y="846" type="curve"/>
      <point x="480" y="846" type="line"/>
    </contour>
  </outline>
</glyph>
<glyph name="guarani" format="1">
  <advance width="1489"/>
  <unicode hex="20B2"/>
  <outline>
    <contour>
      <point x="628" y="-258" type="line"/>
      <point x="662" y="-16" type="line"/>
      <point x="326" y="3"/>
      <point x="194" y="326"/>
      <point x="189" y="627" type="curve"/>
      <point x="178" y="1144"/>
      <point x="474" y="1505"/>
      <point x="854" y="1542" type="curve"/>
      <point x="883" y="1762" type="line"/>
      <point x="1018" y="1762" type="line"/>
      <point x="989" y="1544" type="line"/>
      <point x="1136" y="1537"/>
      <point x="1226" y="1510"/>
      <point x="1286" y="1491" type="curve" smooth="yes"/>
      <point x="1324" y="1479" type="line"/>
      <point x="1277" y="1342" type="line"/>
      <point x="1218" y="1377"/>
      <point x="1103" y="1424"/>
      <point x="921" y="1424" type="curve" smooth="yes"/>
      <point x="529" y="1424"/>
      <point x="338" y="1015"/>
      <point x="342" y="644" type="curve" smooth="yes"/>
      <point x="345" y="378"/>
      <point x="444" y="101"/>
      <point x="720" y="101" type="curve" smooth="yes"/>
      <point x="835" y="101"/>
      <point x="977" y="143"/>
      <point x="1092" y="186" type="curve"/>
      <point x="1146" y="607" type="line"/>
      <point x="865" y="608" type="line"/>
      <point x="880" y="729" type="line"/>
      <point x="1309" y="729" type="line"/>
      <point x="1227" y="94" type="line"/>
      <point x="1188" y="90"/>
      <point x="1145" y="77"/>
      <point x="1090" y="61" type="curve"/>
      <point x="1013" y="37"/>
      <point x="912" y="3"/>
      <point x="796" y="-10" type="curve"/>
      <point x="763" y="-258" type="line"/>
    </contour>
  </outline>
</glyph>
<glyph name="cedi" format="1">
  <advance width="1352"/>
  <unicode hex="20B5"/>
  <outline>
    <contour>
      <point x="656" y="-354" type="line"/>
      <point x="543" y="-354" type="line"/>
      <point x="594" y="-11" type="line"/>
      <point x="269" y="32"/>
      <point x="145" y="358"/>
      <point x="145" y="653" type="curve" smooth="yes"/>
      <point x="145" y="1151"/>
      <point x="432" y="1492"/>
      <point x="827" y="1540" type="curve"/>
      <point x="869" y="1815" type="line"/>
      <point x="982" y="1815" type="line"/>
      <point x="941" y="1546" type="line"/>
      <point x="1084" y="1543"/>
      <point x="1189" y="1515"/>
      <point x="1258" y="1492" type="curve"/>
      <point x="1210" y="1371" type="line"/>
      <point x="1176" y="1395"/>
      <point x="1072" y="1429"/>
      <point x="924" y="1432" type="curve"/>
      <point x="724" y="97" type="line"/>
      <point x="896" y="104"/>
      <point x="1012" y="151"/>
      <point x="1099" y="208" type="curve"/>
      <point x="1142" y="111" type="line"/>
      <point x="1074" y="43"/>
      <point x="908" y="-10"/>
      <point x="707" y="-15" type="curve"/>
    </contour>
    <contour>
      <point x="305" y="677" type="curve"/>
      <point x="300" y="389"/>
      <point x="385" y="149"/>
      <point x="612" y="104" type="curve"/>
      <point x="810" y="1425" type="line"/>
      <point x="505" y="1382"/>
      <point x="310" y="1107"/>
    </contour>
  </outline>
</glyph>
<glyph name="uni20B9" format="1">
  <advance width="1388"/>
  <unicode hex="20B9"/>
  <outline>
    <contour>
      <point x="1123" y="0" type="curve"/>
      <point x="946" y="0" type="line" smooth="yes"/>
      <point x="874" y="0"/>
      <point x="791" y="520"/>
      <point x="658" y="633" type="curve"/>
      <point x="562" y="622"/>
      <point x="469" y="618"/>
      <point x="389" y="618" type="curve" smooth="yes"/>
      <point x="277" y="618"/>
      <point x="194" y="624"/>
      <point x="169" y="627" type="curve"/>
      <point x="183" y="752" type="line"/>
      <point x="251" y="744"/>
      <point x="359" y="745"/>
      <point x="523" y="745" type="curve" smooth="yes"/>
      <point x="751" y="745"/>
      <point x="928" y="846"/>
      <point x="992" y="1033" type="curve"/>
      <point x="223" y="1033" type="line"/>
      <point x="240" y="1154" type="line"/>
      <point x="1015" y="1154" type="line"/>
      <point x="1016" y="1166"/>
      <point x="1017" y="1179"/>
      <point x="1017" y="1192" type="curve" smooth="yes"/>
      <point x="1017" y="1276"/>
      <point x="987" y="1365"/>
      <point x="912" y="1408" type="curve"/>
      <point x="234" y="1408" type="line"/>
      <point x="250" y="1530" type="line"/>
      <point x="1377" y="1530" type="line"/>
      <point x="1360" y="1408" type="line"/>
      <point x="1097" y="1408" type="line"/>
      <point x="1136" y="1352"/>
      <point x="1169" y="1271"/>
      <point x="1169" y="1162" type="curve" smooth="yes"/>
      <point x="1169" y="1154" type="line"/>
      <point x="1366" y="1154" type="line"/>
      <point x="1349" y="1033" type="line"/>
      <point x="1155" y="1033" type="line"/>
      <point x="1110" y="819"/>
      <point x="949" y="716"/>
      <point x="814" y="668" type="curve"/>
      <point x="950" y="541"/>
      <point x="1012" y="142"/>
    </contour>
  </outline>
</glyph>
<glyph name="trademark" format="1">
  <advance width="2111"/>
  <unicode hex="2122"/>
  <outline>
    <contour>
      <point x="917" y="754" type="line"/>
      <point x="1041" y="754" type="line"/>
      <point x="1143" y="1286" type="line"/>
      <point x="1174" y="1460" type="line"/>
      <point x="1218" y="1293" type="line"/>
      <point x="1366" y="746" type="line"/>
      <point x="1464" y="746" type="line"/>
      <point x="1767" y="1351" type="line"/>
      <point x="1821" y="1458" type="line"/>
      <point x="1807" y="1238" type="line"/>
      <point x="1780" y="754" type="line"/>
      <point x="1913" y="754" type="line"/>
      <point x="1945" y="1530" type="line"/>
      <point x="1727" y="1530" type="line"/>
      <point x="1435" y="911" type="line"/>
      <point x="1397" y="1058" type="line"/>
      <point x="1277" y="1530" type="line"/>
      <point x="1069" y="1530" type="line"/>
    </contour>
    <contour>
      <point x="354" y="753" type="line"/>
      <point x="485" y="754" type="line"/>
      <point x="575" y="1419" type="line"/>
      <point x="848" y="1419" type="line"/>
      <point x="861" y="1530" type="line"/>
      <point x="195" y="1530" type="line"/>
      <point x="178" y="1419" type="line"/>
      <point x="444" y="1419" type="line"/>
    </contour>
  </outline>
</glyph>
<glyph name="Omega" format="1">
  <advance width="1659"/>
  <unicode hex="2126"/>
  <outline>
    <contour>
      <point x="521" y="91" type="curve"/>
      <point x="609" y="0" type="line"/>
      <point x="640" y="107" type="line"/>
      <point x="498" y="191"/>
      <point x="300" y="461"/>
      <point x="300" y="769" type="curve" smooth="yes"/>
      <point x="300" y="1204"/>
      <point x="554" y="1427"/>
      <point x="877" y="1427" type="curve" smooth="yes"/>
      <point x="1124" y="1427"/>
      <point x="1380" y="1269"/>
      <point x="1380" y="911" type="curve" smooth="yes"/>
      <point x="1380" y="570"/>
      <point x="1140" y="234"/>
      <point x="907" y="107" type="curve"/>
      <point x="923" y="0" type="line"/>
      <point x="927" y="2"/>
      <point x="1021" y="78"/>
      <point x="1024" y="80" type="curve"/>
      <point x="1302" y="219"/>
      <point x="1531" y="635"/>
      <point x="1531" y="925" type="curve" smooth="yes"/>
      <point x="1531" y="1301"/>
      <point x="1247" y="1546"/>
      <point x="891" y="1546" type="curve" smooth="yes"/>
      <point x="471" y="1546"/>
      <point x="152" y="1283"/>
      <point x="152" y="773" type="curve" smooth="yes"/>
      <point x="152" y="478"/>
      <point x="370" y="166"/>
    </contour>
    <contour>
      <point x="72" y="0" type="line"/>
      <point x="609" y="0" type="line"/>
      <point x="525" y="116" type="line"/>
      <point x="86" y="116" type="line"/>
    </contour>
    <contour>
      <point x="923" y="0" type="line"/>
      <point x="1501" y="0" type="line"/>
      <point x="1511" y="123" type="line"/>
      <point x="998" y="123" type="line"/>
    </contour>
  </outline>
</glyph>
<glyph name="greaterequal" format="1">
  <advance width="1368"/>
  <unicode hex="2265"/>
  <outline>
    <contour>
      <point x="141" y="-1" type="line"/>
      <point x="156" y="113" type="line"/>
      <point x="1104" y="113" type="line"/>
      <point x="1089" y="-1" type="line"/>
    </contour>
    <contour>
      <point x="197" y="246" type="line"/>
      <point x="216" y="395" type="line"/>
      <point x="993" y="734" type="line"/>
      <point x="305" y="1067" type="line"/>
      <point x="324" y="1204" type="line"/>
      <point x="1211" y="758" type="line"/>
      <point x="1203" y="699" type="line"/>
    </contour>
  </outline>
</glyph>
<glyph name="commaaccent" format="1">
  <advance width="367"/>
  <unicode hex="F6C3"/>
  <outline>
    <contour>
      <point x="116" y="-310" type="curve" smooth="yes"/>
      <point x="116" y="-406"/>
      <point x="77" y="-468"/>
      <point x="28" y="-501" type="curve"/>
      <point x="26" y="-521" type="line"/>
      <point x="87" y="-560" type="line"/>
      <point x="158" y="-540"/>
      <point x="261" y="-427"/>
      <point x="261" y="-262" type="curve" smooth="yes"/>
      <point x="261" y="-170"/>
      <point x="218" y="-77"/>
      <point x="142" y="-52" type="curve"/>
      <point x="48" y="-143" type="line"/>
      <point x="44" y="-184" type="line"/>
      <point x="86" y="-201"/>
      <point x="116" y="-254"/>
    </contour>
    <contour>
      <point x="163" y="-170" type="move" name="_btm"/>
    </contour>
  </outline>
</glyph>
<glyph name="circumflex.cap" format="1">
  <advance width="795"/>
  <outline>
    <contour>
      <point x="110" y="1594" type="line"/>
      <point x="440" y="1864" type="line"/>
      <point x="659" y="1599" type="line"/>
      <point x="732" y="1652" type="line"/>
      <point x="527" y="2000" type="line"/>
      <point x="391" y="2000" type="line"/>
      <point x="51" y="1653" type="line"/>
    </contour>
    <contour>
      <point x="380" y="1700" type="move" name="_top"/>
    </contour>
  </outline>
</glyph>
<glyph name="dieresis.cap" format="1">
  <advance width="807"/>
  <outline>
    <contour>
      <point x="172" y="1721" type="curve" smooth="yes"/>
      <point x="232" y="1721"/>
      <point x="285" y="1774"/>
      <point x="289" y="1840" type="curve" smooth="yes"/>
      <point x="291" y="1895"/>
      <point x="257" y="1935"/>
      <point x="197" y="1935" type="curve" smooth="yes"/>
      <point x="147" y="1935"/>
      <point x="91" y="1884"/>
      <point x="87" y="1819" type="curve" smooth="yes"/>
      <point x="84" y="1762"/>
      <point x="123" y="1721"/>
    </contour>
    <contour>
      <point x="592" y="1721" type="curve" smooth="yes"/>
      <point x="654" y="1721"/>
      <point x="705" y="1774"/>
      <point x="709" y="1840" type="curve" smooth="yes"/>
      <point x="713" y="1895"/>
      <point x="677" y="1935"/>
      <point x="618" y="1935" type="curve" smooth="yes"/>
      <point x="568" y="1935"/>
      <point x="507" y="1884"/>
      <point x="506" y="1819" type="curve" smooth="yes"/>
      <point x="505" y="1761"/>
      <point x="543" y="1721"/>
    </contour>
    <contour>
      <point x="375" y="1700" type="move" name="_top"/>
    </contour>
  </outline>
</glyph>
<glyph name="ij_acutecomb" format="1">
  <advance width="1140"/>
  <outline>
    <contour>
      <point x="133" y="0" type="line"/>
      <point x="281" y="0" type="line"/>
      <point x="436" y="1144" type="line"/>
      <point x="287" y="1144" type="line"/>
    </contour>
    <contour>
      <point x="363" y="1252" type="line"/>
      <point x="485" y="1325"/>
      <point x="685" y="1537"/>
      <point x="723" y="1603" type="curve"/>
      <point x="608" y="1707" type="line"/>
      <point x="300" y="1307" type="line"/>
    </contour>
    <contour>
      <point x="713" y="59" type="line"/>
      <point x="678" y="-207"/>
      <point x="625" y="-411"/>
      <point x="435" y="-411" type="curve" smooth="yes"/>
      <point x="407" y="-411"/>
      <point x="373" y="-401"/>
      <point x="360" y="-391" type="curve"/>
      <point x="320" y="-477" type="line"/>
      <point x="345" y="-496"/>
      <point x="391" y="-515"/>
      <point x="456" y="-515" type="curve" smooth="yes"/>
      <point x="673" y="-515"/>
      <point x="811" y="-323"/>
      <point x="855" y="5" type="curve" smooth="yes"/>
      <point x="1008" y="1144" type="line"/>
      <point x="859" y="1144" type="line"/>
    </contour>
    <component base="acute" xOffset="816"/>
  </outline>
</glyph>
<glyph name="tilde.cap" format="1">
  <advance width="813"/>
  <outline>
    <contour>
      <point x="97" y="1733" type="line"/>
      <point x="134" y="1777"/>
      <point x="177" y="1840"/>
      <point x="257" y="1840" type="curve" smooth="yes"/>
      <point x="368" y="1838"/>
      <point x="391" y="1693"/>
      <point x="545" y="1693" type="curve" smooth="yes"/>
      <point x="651" y="1693"/>
      <point x="761" y="1773"/>
      <point x="794" y="1867" type="curve"/>
      <point x="728" y="1937" type="line"/>
      <point x="698" y="1892"/>
      <point x="654" y="1816"/>
      <point x="574" y="1816" type="curve" smooth="yes"/>
      <point x="476" y="1816"/>
      <point x="441" y="1964"/>
      <point x="297" y="1964" type="curve" smooth="yes"/>
      <point x="191" y="1964"/>
      <point x="72" y="1881"/>
      <point x="30" y="1798" type="curve"/>
    </contour>
    <contour>
      <point x="387" y="1700" type="move" name="_top"/>
    </contour>
  </outline>
</glyph>
